<svg width="42" height="42" viewBox="0 0 42 42" fill="none" xmlns="http://www.w3.org/2000/svg">
<rect width="42" height="42" rx="21" transform="matrix(-1 0 0 1 42 0)" fill="#FFD4B4"/>
<path d="M35.0304 17.896H34.4364C34.4208 17.896 33.9559 16.1968 33.8978 16.0368C33.6752 15.4258 33.4116 14.8322 33.1082 14.2591C32.5086 13.1258 31.7588 12.0769 30.8842 11.1502C29.1237 9.28367 26.8656 7.93362 24.4105 7.29643C23.1192 6.96182 21.6946 6.77416 20.4798 7.49573C19.0694 8.33369 18.5123 10.1624 19.2551 11.4571C19.8121 12.4857 21.2594 12.829 22.2616 12.2573C23.0043 11.8005 23.2269 11.1138 23.0043 10.6948C22.8555 10.3893 22.4841 10.3137 22.3736 10.3137C22.151 10.3515 21.927 10.4271 21.8533 10.5799C21.6308 11.0745 21.0737 11.2651 20.6286 11.0367C20.1467 10.8083 19.961 10.2366 20.1835 9.77975C20.5549 8.97962 21.4082 8.44571 22.3367 8.40789C23.302 8.40789 24.1553 8.90251 24.6373 9.77975C25.3801 11.1516 24.7493 12.9788 23.19 13.8939C22.5592 14.2751 21.8902 14.4278 21.1857 14.4278C19.7753 14.4278 18.3649 13.7033 17.6604 12.4086C16.7319 10.7326 16.9176 8.71339 18.0304 7.22805C12.8338 8.37152 8.75144 12.5628 7.60043 17.896H7.0065C5.3367 17.896 4 19.2679 4 20.9438C4 22.6197 5.3367 24.0294 7.0065 24.0294H7.60043C8.97398 30.3156 14.3931 35 21.0737 35C27.7544 35 33.0629 30.3141 34.4364 24.0294H35.0304C36.6633 24.0294 38 22.6576 38 20.9438C38 19.2301 36.6633 17.896 35.0304 17.896ZM15.9892 22.7332C15.0238 22.7332 14.2825 21.9331 14.2825 20.9424C14.2825 19.9516 15.0253 19.1893 15.9892 19.1893C16.9531 19.1893 17.6972 19.9895 17.6972 20.9424C17.6972 21.8952 16.9545 22.7332 15.9892 22.7332ZM21.0737 30.3141C19.8121 30.3141 18.81 29.2856 18.81 27.9908C18.81 26.6961 19.8121 25.6297 21.0737 25.6297C22.3353 25.6297 23.3743 26.6961 23.3743 27.9908C23.3743 29.2856 22.3353 30.3141 21.0737 30.3141ZM26.1597 22.7332C25.1944 22.7332 24.453 21.9331 24.453 20.9424C24.453 19.9516 25.1958 19.1893 26.1597 19.1893C27.1236 19.1893 27.8678 19.9895 27.8678 20.9424C27.8678 21.8952 27.125 22.7332 26.1597 22.7332Z" fill="#FFF6EF"/>
</svg>
