<svg width="206" height="60" viewBox="0 0 206 60" fill="none" xmlns="http://www.w3.org/2000/svg">
<path d="M68.2089 23.3487H66.9162C66.8823 23.3487 65.8704 19.7076 65.7439 19.3647C65.2595 18.0554 64.6857 16.7835 64.0255 15.5553C62.7204 13.1269 61.0884 10.8792 59.1849 8.89348C55.3531 4.8939 50.4385 2.00098 45.0951 0.635571C42.2845 -0.0814237 39.184 -0.483564 36.54 1.06265C33.4703 2.85826 32.2578 6.77679 33.8744 9.55125C35.0869 11.7552 38.2368 12.4909 40.418 11.2658C42.0346 10.2869 42.519 8.81555 42.0346 7.91774C41.7107 7.2631 40.9024 7.10099 40.6617 7.10099C40.1774 7.18205 39.6899 7.34415 39.5295 7.67147C39.0451 8.73138 37.8327 9.13975 36.8639 8.65033C35.815 8.1609 35.4108 6.93577 35.8952 5.95692C36.7035 4.24237 38.5608 3.09829 40.5815 3.01724C42.6825 3.01724 44.5397 4.07715 45.5887 5.95692C47.2053 8.8966 45.8324 12.812 42.4388 14.7728C41.0659 15.5896 39.6097 15.9169 38.0764 15.9169C35.0067 15.9169 31.937 14.3645 30.4037 11.59C28.3829 7.9988 28.7871 3.67189 31.2089 0.489055C19.8988 2.93931 11.0136 11.9204 8.50848 23.3487H7.21581C3.58152 23.3487 0.672241 26.2884 0.672241 29.8796C0.672241 33.4708 3.58152 36.4915 7.21581 36.4915H8.50848C11.498 49.9617 23.2924 59.9996 37.8327 59.9996C52.3729 59.9996 63.9267 49.9586 66.9162 36.4915H68.2089C71.763 36.4915 74.6722 33.5519 74.6722 29.8796C74.6722 26.2073 71.763 23.3487 68.2089 23.3487ZM26.7663 33.714C24.6653 33.714 23.0518 31.9994 23.0518 29.8765C23.0518 27.7536 24.6684 26.1201 26.7663 26.1201C28.8642 26.1201 30.4839 27.8346 30.4839 29.8765C30.4839 31.9184 28.8673 33.714 26.7663 33.714ZM37.8327 49.9586C35.0869 49.9586 32.9057 47.7546 32.9057 44.9801C32.9057 42.2057 35.0869 39.9207 37.8327 39.9207C40.5784 39.9207 42.8398 42.2057 42.8398 44.9801C42.8398 47.7546 40.5784 49.9586 37.8327 49.9586ZM48.9021 33.714C46.8012 33.714 45.1876 31.9994 45.1876 29.8765C45.1876 27.7536 46.8042 26.1201 48.9021 26.1201C51 26.1201 52.6197 27.8346 52.6197 29.8765C52.6197 31.9184 51.0031 33.714 48.9021 33.714Z" fill="#FFF6EF"/>
<path d="M197.982 48.3541C196.882 48.3541 195.798 48.0375 194.732 47.4041C193.698 46.7375 192.798 45.8875 192.032 44.8541C191.298 43.7875 190.798 42.6541 190.532 41.4541C190.398 40.8541 190.298 40.2541 190.232 39.6541C190.165 39.0541 190.098 38.6041 190.032 38.3041C189.998 36.6375 190.265 35.4541 190.832 34.7541C191.398 34.0208 192.298 33.5041 193.532 33.2041C194.098 33.0375 194.648 32.8208 195.182 32.5541C195.715 32.2541 196.248 31.9875 196.782 31.7541C197.948 31.1541 198.998 30.8541 199.932 30.8541C201.665 30.8541 203.098 31.8041 204.232 33.7041C204.765 34.5375 205.098 35.5041 205.232 36.6041C205.398 37.6708 205.348 38.5708 205.082 39.3041C204.748 40.6375 204.282 41.9208 203.682 43.1541C203.115 44.3541 202.348 45.4708 201.382 46.5041C200.848 47.1375 200.282 47.6041 199.682 47.9041C199.115 48.2041 198.548 48.3541 197.982 48.3541ZM198.332 44.7541C199.432 43.6208 200.348 42.4208 201.082 41.1541C201.815 39.8875 202.282 38.4875 202.482 36.9541C202.515 35.0541 201.782 34.1041 200.282 34.1041C199.282 34.1041 198.415 34.3208 197.682 34.7541C196.982 35.1541 196.332 35.6375 195.732 36.2041C195.132 36.7708 194.498 37.2708 193.832 37.7041C193.698 37.7708 193.598 37.9375 193.532 38.2041C193.498 38.4375 193.482 38.6375 193.482 38.8041C193.382 41.1375 194.232 43.1041 196.032 44.7041C196.465 45.1041 196.882 45.2875 197.282 45.2541C197.682 45.2208 198.032 45.0541 198.332 44.7541Z" fill="#505B64"/>
<path d="M179.339 47.8041C178.239 47.8041 177.172 47.5208 176.139 46.9541C174.905 46.2208 173.889 45.3208 173.089 44.2541C172.289 43.1541 171.705 41.9875 171.339 40.7541C171.105 39.9541 170.989 39.0708 170.989 38.1041C170.989 36.2708 171.405 34.4875 172.239 32.7541C172.739 31.7875 173.539 31.3041 174.639 31.3041C174.805 31.3041 174.972 31.3041 175.139 31.3041C175.339 31.3041 175.539 31.3375 175.739 31.4041C176.005 31.3708 176.255 31.3541 176.489 31.3541C176.755 31.3208 176.989 31.2375 177.189 31.1041C178.155 30.5708 179.105 30.3041 180.039 30.3041C180.905 30.3041 181.722 30.4875 182.489 30.8541C183.289 31.1875 184.055 31.6375 184.789 32.2041C185.755 32.9041 186.422 33.7208 186.789 34.6541C187.155 35.5541 187.339 36.5208 187.339 37.5541C187.339 37.7875 187.339 38.0541 187.339 38.3541C187.339 38.6208 187.305 38.8875 187.239 39.1541C187.039 40.3208 186.655 41.4208 186.089 42.4541C185.555 43.4875 184.922 44.4875 184.189 45.4541C183.622 46.2208 182.905 46.8041 182.039 47.2041C181.172 47.6041 180.272 47.8041 179.339 47.8041ZM178.689 44.7541C179.255 44.7541 179.805 44.5541 180.339 44.1541C181.405 43.2875 182.239 42.3041 182.839 41.2041C183.439 40.1041 183.872 38.9875 184.139 37.8541C184.172 37.0208 183.955 36.2041 183.489 35.4041C183.055 34.6041 182.555 34.0708 181.989 33.8041C181.489 33.5708 180.955 33.4541 180.389 33.4541C179.555 33.4541 178.689 33.7708 177.789 34.4041C176.655 35.2375 175.839 36.0375 175.339 36.8041C174.872 37.5375 174.639 38.2875 174.639 39.0541C174.639 39.6875 174.772 40.3375 175.039 41.0041C175.339 41.6375 175.705 42.3208 176.139 43.0541C176.505 43.6208 176.905 44.0541 177.339 44.3541C177.805 44.6208 178.255 44.7541 178.689 44.7541Z" fill="#505B64"/>
<path d="M153.446 52.0041C152.213 51.7708 151.363 51.1708 150.896 50.2041C150.43 49.2375 150.463 48.2208 150.996 47.1541C151.33 46.4875 151.58 46.0875 151.746 45.9541C151.946 45.7875 152.413 45.6041 153.146 45.4041C153.713 45.7041 154.046 46.0041 154.146 46.3041C154.28 46.6041 154.313 46.9041 154.246 47.2041C154.18 47.4708 154.13 47.7375 154.096 48.0041C154.063 48.2708 154.163 48.5208 154.396 48.7541C154.796 49.1541 155.363 49.3041 156.096 49.2041C156.83 49.1041 157.596 48.8208 158.396 48.3541C159.23 47.8541 159.98 47.2375 160.646 46.5041C161.313 45.8375 161.896 45.0208 162.396 44.0541C162.93 43.0541 163.296 42.0208 163.496 40.9541C163.696 39.8541 163.663 38.7875 163.396 37.7541C163.13 36.7208 162.546 35.8208 161.646 35.0541C160.646 34.1875 159.613 34.0041 158.546 34.5041C157.513 35.0041 156.296 36.1541 154.896 37.9541C153.496 39.7541 151.763 42.2208 149.696 45.3541C149.363 45.7875 149.03 46.1875 148.696 46.5541C148.396 46.8875 147.946 47.0041 147.346 46.9041C146.713 46.7708 146.146 46.5541 145.646 46.2541C145.18 45.9541 144.863 45.4708 144.696 44.8041C144.696 44.8375 144.646 44.4208 144.546 43.5541C144.48 42.6875 144.363 41.5541 144.196 40.1541C144.063 38.7541 143.896 37.2041 143.696 35.5041C143.53 33.8041 143.346 32.1208 143.146 30.4541C142.98 28.7541 142.813 27.2041 142.646 25.8041C142.513 24.4041 142.396 23.2875 142.296 22.4541C142.23 21.5875 142.196 21.1708 142.196 21.2041C142.096 19.3708 142.03 17.5208 141.996 15.6541C141.996 13.7875 141.996 11.9375 141.996 10.1041C141.996 9.20414 142.28 8.53747 142.846 8.10414C143.413 7.6708 144.013 7.58747 144.646 7.85414C145.68 8.2208 146.096 8.93747 145.896 10.0041C145.563 12.3041 145.396 14.5541 145.396 16.7541C145.43 18.9208 145.53 20.8541 145.696 22.5541C145.896 24.2208 146.046 25.4875 146.146 26.3541C146.446 28.3875 146.646 30.4541 146.746 32.5541C146.88 34.6208 147.013 36.4875 147.146 38.1541C147.313 39.7875 147.563 40.9875 147.896 41.7541C148.163 41.3875 148.596 40.7208 149.196 39.7541C149.83 38.7541 150.53 37.6708 151.296 36.5041C152.096 35.3375 152.88 34.2708 153.646 33.3041C154.413 32.3041 155.063 31.6041 155.596 31.2041C157.063 30.1041 158.48 29.5875 159.846 29.6541C161.213 29.6875 162.43 30.1708 163.496 31.1041C164.563 32.0375 165.413 33.3208 166.046 34.9541C166.68 36.5875 166.996 38.4375 166.996 40.5041C166.996 41.3375 166.83 42.2375 166.496 43.2041C166.163 44.1708 165.73 45.1041 165.196 46.0041C164.663 46.8708 164.08 47.5875 163.446 48.1541C162.313 49.2208 161.246 50.1041 160.246 50.8041C159.246 51.5041 158.213 51.9541 157.146 52.1541C156.08 52.3875 154.846 52.3375 153.446 52.0041Z" fill="#505B64"/>
<path d="M137.513 48.0041C137.38 48.6708 137.146 49.1041 136.813 49.3041C136.513 49.5375 136.046 49.6041 135.413 49.5041C134.546 49.3375 133.863 49.0541 133.363 48.6541C132.863 48.2541 132.396 47.7208 131.963 47.0541C131.53 46.3541 130.996 45.5041 130.363 44.5041C129.663 45.2375 129.096 45.8375 128.663 46.3041C128.23 46.7375 127.813 47.1208 127.413 47.4541C127.046 47.7875 126.596 48.1541 126.063 48.5541C125.53 48.9208 124.78 49.4041 123.813 50.0041C122.546 50.8041 121.463 51.0875 120.563 50.8541C119.696 50.6541 118.78 50.1541 117.813 49.3541C116.98 48.6875 116.446 47.8208 116.213 46.7541C115.98 45.6541 116.08 44.5708 116.513 43.5041C117.08 42.1375 117.796 40.8875 118.663 39.7541C119.53 38.6208 120.446 37.5375 121.413 36.5041C122.246 35.6708 123.063 34.8375 123.863 34.0041C124.696 33.1708 125.563 32.2875 126.463 31.3541C125.596 31.0875 124.896 30.9208 124.363 30.8541C123.863 30.7875 123.38 30.7708 122.913 30.8041C122.48 30.8041 121.946 30.8541 121.313 30.9541C120.68 31.0208 119.813 31.0875 118.713 31.1541C118.08 31.2208 117.48 31.1875 116.913 31.0541C116.38 30.8875 116.03 30.3875 115.863 29.5541C115.696 29.0208 115.88 28.5875 116.413 28.2541C116.946 27.9208 117.63 27.6875 118.463 27.5541C119.33 27.3875 120.146 27.3208 120.913 27.3541C122.213 27.3875 123.53 27.4375 124.863 27.5041C126.196 27.5708 127.513 27.7041 128.813 27.9041C130.18 28.1375 130.996 28.6375 131.263 29.4041C131.53 30.1375 131.23 31.0541 130.363 32.1541C129.496 33.1875 128.546 34.2041 127.513 35.2041C126.48 36.1708 125.513 37.1708 124.613 38.2041C123.813 39.1041 123.03 40.0375 122.263 41.0041C121.53 41.9708 120.796 42.9208 120.063 43.8541C119.896 44.0875 119.78 44.3708 119.713 44.7041C119.646 45.0041 119.613 45.2875 119.613 45.5541C119.613 46.3875 119.863 46.9875 120.363 47.3541C120.896 47.6875 121.496 47.6375 122.163 47.2041C123.43 46.3708 124.596 45.4708 125.663 44.5041C126.73 43.5041 127.596 42.3875 128.263 41.1541C128.93 39.8875 129.28 38.4375 129.313 36.8041C129.313 35.0041 129.863 34.0875 130.963 34.0541C131.863 34.0208 132.43 34.2208 132.663 34.6541C132.896 35.0875 132.996 35.7375 132.963 36.6041C132.963 37.4708 132.996 38.5375 133.063 39.8041C133.163 40.8708 133.346 41.9208 133.613 42.9541C133.88 43.9541 134.38 44.8875 135.113 45.7541C135.413 46.1541 135.78 46.5208 136.213 46.8541C136.646 47.1875 137.08 47.5708 137.513 48.0041Z" fill="#505B64"/>
<path d="M91.6222 49.0541C91.2556 48.9875 90.8889 49.0375 90.5222 49.2041C90.1556 49.3708 89.7889 49.4875 89.4222 49.5541C89.0556 49.6208 88.6722 49.4875 88.2722 49.1541C88.1722 48.9875 88.0722 48.8375 87.9722 48.7041C87.8722 48.5375 87.8056 48.3875 87.7722 48.2541C87.4389 45.5875 87.2056 42.9708 87.0722 40.4041C86.9389 37.8375 86.7889 35.5708 86.6222 33.6041C86.4222 31.1041 86.2222 28.7041 86.0222 26.4041C85.8222 24.1041 85.3722 21.7208 84.6722 19.2541C84.8056 18.3541 84.9889 17.5541 85.2222 16.8541C85.4889 16.1208 86.1389 15.5041 87.1722 15.0041C89.2389 14.6375 91.2889 14.5208 93.3222 14.6541C95.3889 14.7541 97.4389 15.0375 99.4722 15.5041C101.839 16.0375 103.539 16.9708 104.572 18.3041C105.606 19.6375 105.689 21.4041 104.822 23.6041C104.589 24.2375 104.122 24.9375 103.422 25.7041C102.722 26.4708 102.239 27.1541 101.972 27.7541C102.006 28.0208 102.156 28.2208 102.422 28.3541C102.722 28.4875 103.056 28.5875 103.422 28.6541C103.789 28.6875 104.072 28.7541 104.272 28.8541C105.206 29.1541 106.089 29.5208 106.922 29.9541C107.789 30.3541 108.589 30.8708 109.322 31.5041C110.289 32.2708 110.956 32.9375 111.322 33.5041C111.722 34.0708 111.889 34.9375 111.822 36.1041C111.722 37.7375 111.206 39.1875 110.272 40.4541C109.639 41.3875 108.906 42.2375 108.072 43.0041C107.239 43.7375 106.306 44.3541 105.272 44.8541C104.572 45.2208 103.872 45.5708 103.172 45.9041C102.472 46.2041 101.756 46.4875 101.022 46.7541C99.8222 47.2208 98.6056 47.6708 97.3722 48.1041C96.1389 48.5041 94.8889 48.9375 93.6222 49.4041L91.6222 49.0541ZM91.2722 46.2041C91.4722 46.2041 91.7556 46.2208 92.1222 46.2541C92.4889 46.2541 92.7889 46.2375 93.0222 46.2041C94.6889 45.7375 96.3222 45.2041 97.9222 44.6041C99.5556 44.0041 101.139 43.3375 102.672 42.6041C103.139 42.4041 103.572 42.1375 103.972 41.8041C104.406 41.4708 104.839 41.1375 105.272 40.8041C106.072 40.1708 106.739 39.4041 107.272 38.5041C107.806 37.5708 108.022 36.6208 107.922 35.6541C107.822 34.6541 107.222 33.7375 106.122 32.9041C105.856 32.6708 105.372 32.3375 104.672 31.9041C104.006 31.4708 103.206 31.1208 102.272 30.8541C101.339 30.5875 100.339 30.6041 99.2722 30.9041L93.9722 32.8541C93.3389 32.6541 92.9389 32.4708 92.7722 32.3041C92.6389 32.1375 92.5889 31.6375 92.6222 30.8041C92.8222 30.6041 93.0222 30.3708 93.2222 30.1041C93.4222 29.8375 93.6722 29.6208 93.9722 29.4541C94.3056 29.1875 94.6556 28.9541 95.0222 28.7541C95.4222 28.5208 95.8056 28.3208 96.1722 28.1541C97.1722 27.7208 98.0889 27.1375 98.9222 26.4041C99.7556 25.6708 100.439 24.8541 100.972 23.9541C101.472 23.1541 101.756 22.4541 101.822 21.8541C101.922 21.2541 101.689 20.5208 101.122 19.6541C100.956 19.4875 100.772 19.3375 100.572 19.2041C100.372 19.0375 100.156 18.9041 99.9222 18.8041C99.1889 18.5041 98.4056 18.3208 97.5722 18.2541C96.3722 18.1541 95.1056 18.0875 93.7722 18.0541C92.4722 18.0208 91.2222 18.0875 90.0222 18.2541C89.7889 18.2875 89.5389 18.3708 89.2722 18.5041C89.0389 18.6375 88.7889 18.7541 88.5222 18.8541C88.3556 19.7875 88.3389 20.7041 88.4722 21.6041C88.6056 22.5041 88.7389 23.2541 88.8722 23.8541C89.1389 24.9875 89.3222 26.3708 89.4222 28.0041C89.5222 29.6041 89.6222 31.1541 89.7222 32.6541C89.8556 34.1875 90.0056 36.0208 90.1722 38.1541C90.3389 40.2875 90.5056 42.4708 90.6722 44.7041C90.6722 44.8375 90.7389 45.0708 90.8722 45.4041C91.0389 45.7041 91.1722 45.9708 91.2722 46.2041Z" fill="#505B64"/>
</svg>
