<svg width="75" height="60" viewBox="0 0 75 60" fill="none" xmlns="http://www.w3.org/2000/svg">
<path d="M68.2089 23.3487H66.9162C66.8823 23.3487 65.8704 19.7076 65.7439 19.3647C65.2595 18.0554 64.6857 16.7835 64.0255 15.5553C62.7204 13.1269 61.0884 10.8792 59.1849 8.89348C55.3531 4.8939 50.4385 2.00098 45.0951 0.635571C42.2845 -0.0814237 39.184 -0.483564 36.54 1.06265C33.4703 2.85826 32.2578 6.77679 33.8744 9.55125C35.0869 11.7552 38.2368 12.4909 40.418 11.2658C42.0346 10.2869 42.519 8.81555 42.0346 7.91774C41.7107 7.2631 40.9024 7.10099 40.6617 7.10099C40.1774 7.18205 39.6899 7.34415 39.5295 7.67147C39.0451 8.73138 37.8327 9.13975 36.8639 8.65033C35.815 8.1609 35.4108 6.93577 35.8952 5.95692C36.7035 4.24237 38.5608 3.09829 40.5815 3.01724C42.6825 3.01724 44.5397 4.07715 45.5887 5.95692C47.2053 8.8966 45.8324 12.812 42.4388 14.7728C41.0659 15.5896 39.6097 15.9169 38.0764 15.9169C35.0067 15.9169 31.937 14.3645 30.4037 11.59C28.3829 7.9988 28.7871 3.67189 31.2089 0.489055C19.8988 2.93931 11.0136 11.9204 8.50848 23.3487H7.21581C3.58152 23.3487 0.672241 26.2884 0.672241 29.8796C0.672241 33.4708 3.58152 36.4915 7.21581 36.4915H8.50848C11.498 49.9617 23.2924 59.9996 37.8327 59.9996C52.3729 59.9996 63.9267 49.9586 66.9162 36.4915H68.2089C71.763 36.4915 74.6722 33.5519 74.6722 29.8796C74.6722 26.2073 71.763 23.3487 68.2089 23.3487ZM26.7663 33.714C24.6653 33.714 23.0518 31.9994 23.0518 29.8765C23.0518 27.7536 24.6684 26.1201 26.7663 26.1201C28.8642 26.1201 30.4839 27.8346 30.4839 29.8765C30.4839 31.9184 28.8673 33.714 26.7663 33.714ZM37.8327 49.9586C35.0869 49.9586 32.9057 47.7546 32.9057 44.9801C32.9057 42.2057 35.0869 39.9207 37.8327 39.9207C40.5784 39.9207 42.8398 42.2057 42.8398 44.9801C42.8398 47.7546 40.5784 49.9586 37.8327 49.9586ZM48.9021 33.714C46.8012 33.714 45.1876 31.9994 45.1876 29.8765C45.1876 27.7536 46.8042 26.1201 48.9021 26.1201C51 26.1201 52.6197 27.8346 52.6197 29.8765C52.6197 31.9184 51.0031 33.714 48.9021 33.714Z" fill="#FFF6EF"/>
</svg>
